<?xml version="1.0" encoding="UTF-8" standalone="no"?>
<svg
   id="Layer_1"
   data-name="Layer 1"
   viewBox="0 0 256 256.00001"
   version="1.1"
   sodipodi:docname="icon.svg"
   width="256"
   height="256"
   inkscape:version="1.3.2 (091e20e, 2023-11-25, custom)"
   inkscape:export-filename="icon.png"
   inkscape:export-xdpi="6"
   inkscape:export-ydpi="6"
   xmlns:inkscape="http://www.inkscape.org/namespaces/inkscape"
   xmlns:sodipodi="http://sodipodi.sourceforge.net/DTD/sodipodi-0.dtd"
   xmlns="http://www.w3.org/2000/svg"
   xmlns:svg="http://www.w3.org/2000/svg">
  <sodipodi:namedview
     id="namedview4"
     pagecolor="#ffffff"
     bordercolor="#000000"
     borderopacity="0.25"
     inkscape:showpageshadow="2"
     inkscape:pageopacity="0.0"
     inkscape:pagecheckerboard="0"
     inkscape:deskcolor="#d1d1d1"
     inkscape:zoom="2.2308669"
     inkscape:cx="111.83993"
     inkscape:cy="104.89196"
     inkscape:window-width="1664"
     inkscape:window-height="1176"
     inkscape:window-x="745"
     inkscape:window-y="63"
     inkscape:window-maximized="0"
     inkscape:current-layer="Layer_1"
     inkscape:export-bgcolor="#ffffff00" />
  <defs
     id="defs1">
    <style
       id="style1">.cls-1{fill:#fff;}.cls-2{fill:#1a428a;}.cls-3{fill:#e1251b;}</style>
    <clipPath
       clipPathUnits="userSpaceOnUse"
       id="clipPath1">
      <rect
         style="fill:#ffffff;stroke-width:1.43724"
         id="rect2"
         width="367.93365"
         height="367.93365"
         x="59.222164"
         y="2.7333305"
         ry="31.888855" />
    </clipPath>
  </defs>
  <g
     id="g7"
     transform="matrix(0.69577761,0,0,0.69577761,-41.205455,-1.9017902)"
     clip-path="url(#clipPath1)">
    <path
       class="cls-1"
       d="m 22.43,7.74 3.15,11.54 a 20,20 0 0 0 1,5.38 l -0.78,1.48 c -3.72,1.42 -6.31,4.64 -8.69,7.58 -5,6.41 -5.86,8.2 -4,12.56 a 22.75,22.75 0 0 1 0.88,2.22 21.37,21.37 0 0 1 1,5.25 c 0.37,3.43 0.79,7.32 6.08,9.64 a 6.22,6.22 0 0 0 2.41,0.49 6.39,6.39 0 0 0 4.52,-2 c 0.16,0.41 0.31,0.82 0.48,1.24 0.62,1.62 1.28,3.33 2.06,5.45 l 0.34,0.67 0.3,0.38 c 2,2.62 5.13,6.59 9.27,6.59 A 6.16,6.16 0 0 0 42.05,76 c 1.87,0.1 2.62,0.93 3.4,3.79 -1.06,5.05 -0.05,6.76 2.41,9.28 0.45,0.46 1,1 1.55,1.69 0.43,0.72 0.84,1.54 1.24,2.34 1,1.93 1.83,3.62 3.09,4.64 0.16,0.17 0.38,0.37 0.61,0.59 a 21.66,21.66 0 0 1 1.76,1.67 c 1.86,2.27 3.45,4.61 5.13,7.09 1.68,2.48 3.36,5 5.34,7.38 l 0.23,0.29 0.3,0.22 c 7,5.31 10.6,9 12.74,13.11 l 0.13,0.23 0.16,0.22 c 3.59,4.69 6.36,8.63 8.8,12.11 5.09,7.25 8.8,12.53 15.11,17.47 a 27.26,27.26 0 0 0 3,3.39 c 1.7,1.74 3.17,3.23 3.39,5.1 0.88,8.47 12,18.87 20.85,27.23 l 3.26,3.08 a 230.29,230.29 0 0 0 38.19,30.74 c 7.85,21.6 24.67,74.56 20.62,121.73 -1.27,4.91 -2.29,9.55 -3.27,14.05 -0.55,2.52 -1.11,5 -1.71,7.64 l 3,0.69 h 131.15 l 3,-0.55 c -0.53,-2.87 -1.12,-5.75 -1.72,-8.62 l -0.16,-0.77 a 25.91,25.91 0 0 0 -0.74,-3 11.93,11.93 0 0 1 -0.63,-3.09 5.59,5.59 0 0 1 0.46,-1.05 9,9 0 0 0 1.11,-3.31 c 1.84,-27 7.57,-47.64 13.63,-69.5 3,-10.72 6.06,-21.81 8.65,-33.75 0.3,-1.44 0.61,-2.85 0.91,-4.19 a 50.8,50.8 0 0 0 1.52,-8.66 q 1.95,-1.26 3.85,-2.46 c 7.38,-4.66 14.35,-9.06 19.61,-18.33 14.66,-10.81 22.45,-20.57 24.4,-30.56 a 20.15,20.15 0 0 1 4.72,-2.42 c 4.26,-1.77 10,-4.16 10.63,-11.59 4.25,-4.37 7.14,-8.43 8.25,-14.16 1.47,-1.87 3,-3.78 4.62,-5.68 5.38,-6.47 10.48,-12.62 11.71,-17.78 C 444,126.67 451,121.22 449,113.58 a 14.26,14.26 0 0 0 6.34,-13.29 23.21,23.21 0 0 1 5.19,-3 c 3.07,-1.46 6.25,-3 8,-6 0.51,-0.65 1.83,-2.17 3.14,-3.68 2.18,-2.49 2.13,-5.64 3.38,-8.68 v -15 c -2.07,-5.56 -2.2,-10.65 -6.28,-13.79 a 7,7 0 0 0 -2.3,-1.27 91.84,91.84 0 0 1 2.53,-9.39 c 0.49,-1.6 1,-3.19 1.4,-4.73 3.31,-5.35 3.71,-9.74 1.17,-13.06 l -0.15,-0.19 -0.17,-0.16 a 7,7 0 0 0 -4.84,-2.18 c -4.31,0 -7.22,4.51 -10.65,10.54 -0.76,1.63 -1.76,3.71 -2.76,5.85 -1.28,2.81 -2.6,5.71 -3.74,7.84 a 65.53,65.53 0 0 0 -6.61,10.74 c -4.26,4.75 -8.72,12.28 -9.19,18.48 -0.52,0.74 -0.93,1.41 -1.3,2 a 13.41,13.41 0 0 1 -0.95,1.43 6.06,6.06 0 0 0 -0.75,0 6.18,6.18 0 0 0 -4.89,2.5 l -0.47,0.58 -0.16,0.73 a 8.4,8.4 0 0 1 -0.89,2.13 l -0.32,0.62 c -6.34,0 -9.39,7.41 -10.69,11.23 l -0.34,0.14 c -2,0.9 -4.28,1.9 -5.29,3.66 a 13.77,13.77 0 0 0 -2.06,2.44 9.2,9.2 0 0 1 -1,1.26 c -3.62,0.84 -5.35,3.72 -6.64,5.87 a 18.47,18.47 0 0 1 -1.42,2.14 c -2.56,1.25 -4.44,3.85 -6.05,6.69 -3.91,1 -6.89,5.17 -8.31,8.06 -4.93,3.1 -7.49,5.84 -9.52,10.31 a 18.13,18.13 0 0 0 -12.58,8.52 c -4.42,2.91 -9.64,7.67 -12.17,13 -4.46,3.24 -7.47,7.54 -11.71,14.29 a 22.18,22.18 0 0 0 -7,-1.11 25.76,25.76 0 0 0 -9,1.69 c -3.12,-0.72 -6.13,-1.33 -9,-1.87 a 1.29,1.29 0 0 1 0.06,-1.78 l 0.51,-0.78 v -7.46 0 c 1.51,-5.39 3,-10.78 4.54,-16.35 3.78,-9.39 4.65,-18.8 2.79,-30.45 A 56.39,56.39 0 0 0 314.4,85.39 l -0.33,-0.77 -0.67,-0.49 C 302.26,75.97 287.61,70.68 276.01,70.62 a 85.31,85.31 0 0 0 -10.66,-0.72 52.9,52.9 0 0 0 -26.33,6.55 c -2.82,1.63 -5.54,3.49 -8.17,5.29 -2.63,1.8 -5.12,3.49 -7.55,4.91 -4.88,2.45 -8.59,9.55 -12.52,17.07 -1.67,3.21 -3.4,6.52 -5.09,9.15 l -0.12,0.17 -0.09,0.2 c -3.07,6.6 -3.67,11 -1.92,13.72 a 5.53,5.53 0 0 0 4.84,2.49 9.81,9.81 0 0 0 3.18,-0.58 c -0.14,1.78 -0.61,4.4 -0.93,6.17 -0.26,1.44 -0.52,2.89 -0.72,4.24 -3.1,2.73 -5.87,7.49 -4,15.42 l 0.1,0.32 c 1.33,3.69 2.39,7.17 1.79,11.76 l -1.42,0.67 c -2.64,-1.42 -5.07,-2.63 -7.72,-3.86 l -0.27,-0.12 -0.28,-0.07 a 20.58,20.58 0 0 0 -5,-0.66 17.15,17.15 0 0 0 -4.93,0.72 14.06,14.06 0 0 0 -10.4,-4.37 c -0.57,0 -1.12,0 -1.68,0.07 l -5.91,-4.78 c -0.91,-9.63 -6.4,-15.89 -14.94,-17 a 48.48,48.48 0 0 0 -5.24,-3.08 c -1.26,-0.67 -2.47,-1.31 -3.66,-2.06 v -5.81 l -0.15,-0.46 c -1.53,-4.81 -4.23,-10.09 -12.61,-12.81 l -0.61,-0.19 -0.63,0.06 h -0.45 c -1.86,0 -2.83,-1.4 -4.91,-5.11 -0.64,-1.13 -1.31,-2.32 -2.08,-3.49 l -0.24,-0.39 -0.35,-0.29 c -2,-1.63 -3.86,-3.37 -5.77,-5.1 -2.23,-2 -4.52,-4.11 -6.86,-6 A 21.71,21.71 0 0 0 107.03,88.33 15.72,15.72 0 0 1 103.61,85 L 103.18,84.36 102.5,84 a 16.49,16.49 0 0 1 -3.08,-2.29 23.63,23.63 0 0 0 -4.07,-3 c -0.31,-0.43 -0.76,-1.19 -1.11,-1.78 a 23.44,23.44 0 0 0 -3.87,-5.24 8.27,8.27 0 0 0 -5.66,-2 C 84.46,69.32 84.22,69 84,68.69 A 26.72,26.72 0 0 1 82.27,66 l -0.3,-0.53 -0.49,-0.37 c -3.13,-2.43 -6.32,-4.74 -9.16,-6.79 -1.65,-2.09 -3.36,-4.12 -5.1,-6.17 l -2.6,-3.09 -0.29,-0.21 c -1.06,-0.8 -2.08,-1.59 -3.1,-2.39 -0.81,-0.63 -1.61,-1.26 -2.44,-1.89 a 121.92,121.92 0 0 0 -7.63,-12 97,97 0 0 1 -6.16,-9.7 l -0.11,-0.22 -0.15,-0.19 a 8.45,8.45 0 0 1 -1.39,-3.59 14.79,14.79 0 0 0 -2.1,-5.42 L 37.9,7.11 C 36.68,4.74 35.24,2.7 34,0.32 L 30,0 h -2.76 c -2.92,0.66 -4.49,2.2 -4.49,4.49 z m 189,114.42 c 1,-1.32 3.44,-3.12 4.64,-3.21 a 95,95 0 0 1 9.63,-0.54 c 9,0 21.63,1.44 39.71,12.72 6.16,3.47 11.73,6.36 17.42,6.44 a 15.34,15.34 0 0 1 -6.26,3.2 c -11.72,0.65 -21.29,1 -29.26,1 -23.42,0 -29.13,-2.89 -30.51,-4.18 A 65.09,65.09 0 0 0 218,130 c 0.18,-1.49 0.35,-2.94 0.59,-4.31 l 0.62,-3.59 h -3.64 a 7.27,7.27 0 0 0 -2.6,0.37 l -0.43,0.15 v -0.33 a 9.26,9.26 0 0 1 -1.14,-0.13 z"
       id="path1" />
    <path
       class="cls-2"
       d="m 211.38,170 c 4.36,20.43 42.41,11.87 81.51,1.22 -16.41,7.69 -33.34,15.9 -55.33,15.38 -19.55,-0.36 -30.37,-5.41 -26.18,-16.6 M 475.09,0 H 30 c 0.35,0 0.53,0.18 0.88,0.35 1.46,2.73 2.86,5.44 4.26,8.16 L 38.58,15 c 2.27,3.31 1.23,5.94 3.67,9.25 3.32,6.46 10.13,14.49 14.14,22.34 2.09,1.58 4,3.14 6.11,4.71 2.62,3.14 5.23,6.11 7.67,9.25 3.15,2.27 6.29,4.54 9.44,7 1.39,2.45 1.92,2.79 3.49,5.24 1.39,0 3.48,-0.35 5.23,1.21 2.09,1.92 3.84,5.93 5,7.17 3.15,1.56 4.72,4 7.68,5.58 2.1,3.14 6.46,4.88 8.57,8 4.35,3.5 8.54,7.69 12.91,11.34 3.32,5.07 4.7,10.48 10.29,10 7,2.27 9.25,6.46 10.65,10.84 v 7 c 3.67,2.62 7.34,3.84 10.82,6.46 8.33,0.7 12.7,6.8 13.12,15.57 l 7.93,6.4 c 4,-0.5 8.14,-0.29 12.12,4.72 a 14.92,14.92 0 0 1 10.12,-0.68 c 3,1.41 5.82,2.82 8.92,4.52 l 4.27,-2 c 1.23,-6.21 -0.14,-10.63 -1.67,-14.89 -1.4,-5.76 -0.17,-10.12 3.84,-13.08 0.69,-5.78 3.14,-14.32 1,-15.54 a 4.48,4.48 0 0 1 1.57,-0.19 c -0.69,4 -0.87,8.74 -2.09,12.93 2.8,7.67 32.29,7.5 63.53,5.76 6.46,-1.58 12.05,-6.45 9.43,-9.77 -6.11,1.74 -12.75,-1.76 -19.55,-5.59 -21.82,-13.62 -37,-14 -51.14,-12.56 -4.19,0.34 -13.26,9.07 -3.31,9.42 h -0.18 c -5.06,2.44 -9.43,1.22 -3.84,-10.82 5.41,-8.39 10.48,-22.17 16.41,-25.14 5.41,-3.14 10.47,-7.16 15.88,-10.29 10.12,-5.41 20.43,-7.34 35.26,-5.41 11.87,0 26,5.75 35.78,12.91 3.83,8.9 4.7,16.93 4.19,25.66 1.56,9.6 1.56,19 -2.63,29.32 -1.56,5.77 -3.13,11.34 -4.71,16.93 v 7 c -1.4,2.1 -1.22,4.19 0.88,6.29 3.66,0.7 7.15,1.39 10.81,2.26 5.94,-2.44 11.7,-2.44 16.93,0 4.89,-7.85 8,-12.74 12.93,-16 2.09,-5.07 7.32,-10 12,-12.91 2.62,-5.24 8.05,-7.51 12.4,-7.87 1.92,-4.89 4,-7.5 9.77,-11 1.39,-3.32 4.71,-7.51 7.86,-7.33 1.56,-3 3.49,-6.11 5.93,-7 2.61,-2.61 3.32,-7.15 7.51,-7.68 1.91,-1.2 2.44,-3.3 4.35,-4.7 0.18,-1.4 4,-2.62 5.6,-3.49 2.44,-7.69 5.75,-11.71 10.29,-10 0,-1.76 1.58,-3.15 2.1,-5.59 a 3.11,3.11 0 0 1 4,-1 c 2.1,-1.21 2.44,-3 4.54,-5.75 0,-5.76 4.72,-13.43 8.73,-17.8 a 63.3,63.3 0 0 1 6.76,-11 c 2.09,-3.84 4.71,-10.12 6.63,-14 4.19,-7.34 7,-11 10.65,-7.51 q 2.61,3.4 -1.58,10 c -1.56,5.76 -4,12.21 -4.53,17.8 6.64,0.88 9.6,3.49 9.24,9.25 0.56,0.56 1.11,1.16 1.6,1.75 a 7.79,7.79 0 0 1 0.5,0.61 11,11 0 0 1 0.7,1 z m -0.69,79.75 c 0,0 -2.34,2.79 -3.54,4.11 -1.71,2 -3.43,3.88 -4.83,5.68 -2.45,4.54 -10.13,5.06 -14,9.77 1.4,5.07 -1.57,10.48 -6.81,12.92 3.49,7 -2.62,11.69 -11.68,18.32 -0.54,5.94 -9.78,15.36 -16.42,23.91 -0.87,5.42 -3.49,9.26 -8.38,14.14 0,10 -10.64,8.9 -15.17,13.79 -1.58,10.3 -10.31,20.07 -23.91,30 -6.12,11.17 -15,15 -24.27,21.29 0.52,2.44 -1,7.85 -2.27,13.79 -7.68,35.43 -19.55,62.67 -22.33,103.68 -0.18,1.57 -1.58,2.95 -1.58,4.53 0,2.27 1,4.37 1.4,6.64 0.65,3.15 1.32,6.31 1.89,9.46 H 475.1 V 78.89 l -0.7,0.86"
       id="path2" />
    <path
       class="cls-3"
       d="m 175.25,225.68 a 227.53,227.53 0 0 1 -38.57,-30.9 c -8.2,-7.86 -22.34,-20.06 -23.21,-28.44 -0.53,-4.55 -4.89,-6.82 -7.17,-10.31 -9.08,-7 -12.38,-14.48 -23.73,-29.32 C 80.12,122 76.11,118 69,112.58 65.17,107.86 62.38,102.8 58.53,98.1 A 36.09,36.09 0 0 0 55.92,95.47 C 54.64,94.6 53.43,91.28 52,89 c -3.13,-3.83 -4.7,-3.32 -3.31,-9.24 -0.87,-3.49 -2.1,-6.82 -7,-6.82 -3.14,1.24 -6.28,-3 -8.19,-5.41 -1.93,-5.23 -3.15,-8 -4.89,-13.08 -1.05,4 -3.31,7.33 -6.29,6.1 -5.58,-2.44 -3.14,-6.8 -5.41,-13.09 -1.74,-5.23 -3.48,-4 2.62,-11.87 3.66,-4.54 6.28,-7.33 10.82,-7.15 0,-3.67 -1.74,-5.94 -1.74,-9.61 L 25.49,7.33 C 25.49,3.84 25.67,0.87 27.24,0 H 0 v 371.81 h 191.35 c 1.7,-7.34 3,-14.21 5,-21.86 3.49,-39.8 -7.69,-87.62 -21.12,-124.27"
       id="path3" />
  </g>
  <g
     id="g6"
     transform="matrix(0.55952692,0,0,0.55952692,0.02842671,8.115893)">
    <path
       id="rect4"
       style="fill:#ffffff;fill-opacity:1;stroke-width:1.16407"
       d="m 205.11719,49.539329 v 79.657441 h -49.84766 v 86.52616 h 49.84766 v 14.54074 h 83.67969 V 172.45984 H 337.25 V 101.80271 H 288.79688 V 49.539329 Z" />
    <path
       d="M 353.88063,107.09156 260.72582,13.936285 c -5.49801,-5.4980022 -14.50416,-5.4980022 -20.00216,0 l -93.16424,93.155275 c -5.498,5.498 -10.0058,16.37046 -10.0058,24.15066 v 84.8748 c 0,7.78019 6.36561,14.1458 14.1458,14.1458 h 87.01553 L 200.3987,191.94656 c -1.97098,0.679 -4.07399,1.06565 -6.26188,1.06565 -10.6565,0 -19.33259,-8.67609 -19.33259,-19.33259 0,-10.6565 8.67609,-19.3326 19.33259,-19.3326 10.65651,0 19.3326,8.6761 19.3326,19.3326 0,2.19731 -0.38665,4.30032 -1.06565,6.2713 l 29.82877,29.82878 V 100.49867 c -6.41276,-3.149315 -10.84511,-9.731835 -10.84511,-17.342265 0,-10.65651 8.67609,-19.33259 19.33259,-19.33259 10.65651,0 19.3326,8.67608 19.3326,19.33259 0,7.61043 -4.43235,14.19295 -10.84511,17.342265 v 76.64195 l 29.66845,-29.66845 c -0.58469,-1.84839 -0.90533,-3.80995 -0.90533,-5.84693 0,-10.65651 8.6761,-19.33261 19.33259,-19.33261 10.65651,0 19.33259,8.6761 19.33259,19.33261 0,10.65649 -8.67608,19.33259 -19.33259,19.33259 -2.35763,0 -4.6021,-0.44324 -6.68625,-1.21654 l -41.40946,41.40948 v 29.12147 h 90.53311 c 7.7802,0 14.14581,-6.3656 14.14581,-14.14579 v -84.8748 c 0,-7.78019 -4.49838,-18.64418 -10.0058,-24.1516 z"
       fill="#18bcf2"
       id="path2-2"
       style="stroke-width:0.943053" />
  </g>
</svg>
